# xmcd
#
# Track frame offsets: 
#        150
#        11557
#        19463
#        28872
#        38525
#        46691
#        56573
#        68119
#        76767
#        86731
#        95254
#        105917
#        114135
#        124678
#        133110
#        142832
#        152388
#        162570
#        171814
#        183279
#
# Disc length: 2599 seconds
#
# Revision: 1
# Processed by: cddbd v1.5.2PL0 Copyright (c) Steve Scherf et al.
# Submitted via: ExactAudioCopy v0.95b4
#
DISCID=ed0a2514
DTITLE=The Dillards - Pickin' and Fiddlin' ... and The Capitol Singles
DYEAR=1965
DGENRE=Bluegrass
TTITLE0=Hamilton County
TTITLE1=Fisher's Hornpipe
TTITLE2=Paddy On The Turnpike
TTITLE3=Jazz Bow Rag
TTITLE4=Apple Blossom
TTITLE5=Tom and Jerry
TTITLE6=Cotton Patch
TTITLE7=Durang's Hornpipe
TTITLE8=Wagoner
TTITLE9=Sally Johnson
TTITLE10=Crazy Creek
TTITLE11=Drunken Billy Goat
TTITLE12=Black Mountain Rag
TTITLE13=Twinkle, Twinkle
TTITLE14=Wild John
TTITLE15=Soppin' The Garvy
TTITLE16=Nobody Knows
TTITLE17=Ebo Walker
TTITLE18=Last Thing On My Mind
TTITLE19=Lemon Chimes
EXTD=
EXTT0=
EXTT1=
EXTT2=
EXTT3=
EXTT4=
EXTT5=
EXTT6=
EXTT7=
EXTT8=
EXTT9=
EXTT10=
EXTT11=
EXTT12=
EXTT13=
EXTT14=
EXTT15=
EXTT16=
EXTT17=
EXTT18=
EXTT19=
PLAYORDER=
